<mxfile host="Electron" modified="2024-11-15T09:52:29.469Z" agent="Mozilla/5.0 (Windows NT 10.0; Win64; x64) AppleWebKit/537.36 (KHTML, like Gecko) draw.io/24.6.1 Chrome/124.0.6367.207 Electron/30.0.6 Safari/537.36" etag="94Zv86T98e4n7ZY395jB" version="24.6.1" type="device">
  <diagram name="페이지-1" id="QfeLOIcIpbCTp8vrxc47">
    <mxGraphModel dx="2035" dy="1385" grid="1" gridSize="10" guides="1" tooltips="1" connect="1" arrows="1" fold="1" page="1" pageScale="1" pageWidth="1654" pageHeight="1169" math="0" shadow="0">
      <root>
        <mxCell id="0" />
        <mxCell id="1" parent="0" />
        <mxCell id="PtanhiVUjZCCaY57AvYd-1" value="1" style="ellipse;whiteSpace=wrap;html=1;aspect=fixed;strokeWidth=2;fillColor=#FFFF00;" vertex="1" parent="1">
          <mxGeometry x="500" y="250" width="30" height="30" as="geometry" />
        </mxCell>
        <mxCell id="PtanhiVUjZCCaY57AvYd-2" value="2" style="ellipse;whiteSpace=wrap;html=1;aspect=fixed;strokeWidth=2;" vertex="1" parent="1">
          <mxGeometry x="600" y="250" width="30" height="30" as="geometry" />
        </mxCell>
        <mxCell id="PtanhiVUjZCCaY57AvYd-3" value="20" style="ellipse;whiteSpace=wrap;html=1;aspect=fixed;strokeWidth=2;fillColor=#FFFF00;" vertex="1" parent="1">
          <mxGeometry x="550" y="350" width="30" height="30" as="geometry" />
        </mxCell>
        <mxCell id="PtanhiVUjZCCaY57AvYd-4" value="21" style="ellipse;whiteSpace=wrap;html=1;aspect=fixed;strokeWidth=2;" vertex="1" parent="1">
          <mxGeometry x="650" y="350" width="30" height="30" as="geometry" />
        </mxCell>
        <mxCell id="PtanhiVUjZCCaY57AvYd-6" value="3" style="ellipse;whiteSpace=wrap;html=1;aspect=fixed;strokeWidth=2;" vertex="1" parent="1">
          <mxGeometry x="700" y="250" width="30" height="30" as="geometry" />
        </mxCell>
        <mxCell id="PtanhiVUjZCCaY57AvYd-7" value="4" style="ellipse;whiteSpace=wrap;html=1;aspect=fixed;strokeWidth=2;" vertex="1" parent="1">
          <mxGeometry x="800" y="250" width="30" height="30" as="geometry" />
        </mxCell>
        <mxCell id="PtanhiVUjZCCaY57AvYd-8" value="22" style="ellipse;whiteSpace=wrap;html=1;aspect=fixed;strokeWidth=2;" vertex="1" parent="1">
          <mxGeometry x="750" y="350" width="30" height="30" as="geometry" />
        </mxCell>
        <mxCell id="PtanhiVUjZCCaY57AvYd-9" value="23" style="ellipse;whiteSpace=wrap;html=1;aspect=fixed;strokeWidth=2;" vertex="1" parent="1">
          <mxGeometry x="850" y="350" width="30" height="30" as="geometry" />
        </mxCell>
        <mxCell id="PtanhiVUjZCCaY57AvYd-10" value="5" style="ellipse;whiteSpace=wrap;html=1;aspect=fixed;strokeWidth=2;" vertex="1" parent="1">
          <mxGeometry x="900" y="250" width="30" height="30" as="geometry" />
        </mxCell>
        <mxCell id="PtanhiVUjZCCaY57AvYd-11" value="24" style="ellipse;whiteSpace=wrap;html=1;aspect=fixed;strokeWidth=2;" vertex="1" parent="1">
          <mxGeometry x="950" y="350" width="30" height="30" as="geometry" />
        </mxCell>
        <mxCell id="PtanhiVUjZCCaY57AvYd-12" value="6" style="ellipse;whiteSpace=wrap;html=1;aspect=fixed;strokeWidth=2;fillColor=#FF0000;" vertex="1" parent="1">
          <mxGeometry x="1000" y="250" width="30" height="30" as="geometry" />
        </mxCell>
        <mxCell id="PtanhiVUjZCCaY57AvYd-13" value="7" style="ellipse;whiteSpace=wrap;html=1;aspect=fixed;strokeWidth=2;" vertex="1" parent="1">
          <mxGeometry x="1100" y="250" width="30" height="30" as="geometry" />
        </mxCell>
        <mxCell id="PtanhiVUjZCCaY57AvYd-14" value="25" style="ellipse;whiteSpace=wrap;html=1;aspect=fixed;strokeWidth=2;fillColor=#FF0000;" vertex="1" parent="1">
          <mxGeometry x="1050" y="350" width="30" height="30" as="geometry" />
        </mxCell>
        <mxCell id="PtanhiVUjZCCaY57AvYd-15" value="26" style="ellipse;whiteSpace=wrap;html=1;aspect=fixed;strokeWidth=2;" vertex="1" parent="1">
          <mxGeometry x="1150" y="350" width="30" height="30" as="geometry" />
        </mxCell>
        <mxCell id="PtanhiVUjZCCaY57AvYd-16" value="27" style="ellipse;whiteSpace=wrap;html=1;aspect=fixed;strokeWidth=2;" vertex="1" parent="1">
          <mxGeometry x="1250" y="350" width="30" height="30" as="geometry" />
        </mxCell>
        <mxCell id="PtanhiVUjZCCaY57AvYd-17" value="9" style="ellipse;whiteSpace=wrap;html=1;aspect=fixed;strokeWidth=2;" vertex="1" parent="1">
          <mxGeometry x="1300" y="250" width="30" height="30" as="geometry" />
        </mxCell>
        <mxCell id="PtanhiVUjZCCaY57AvYd-18" value="10" style="ellipse;whiteSpace=wrap;html=1;aspect=fixed;strokeWidth=2;" vertex="1" parent="1">
          <mxGeometry x="1400" y="250" width="30" height="30" as="geometry" />
        </mxCell>
        <mxCell id="PtanhiVUjZCCaY57AvYd-19" value="28" style="ellipse;whiteSpace=wrap;html=1;aspect=fixed;strokeWidth=2;" vertex="1" parent="1">
          <mxGeometry x="1350" y="350" width="30" height="30" as="geometry" />
        </mxCell>
        <mxCell id="PtanhiVUjZCCaY57AvYd-20" value="29" style="ellipse;whiteSpace=wrap;html=1;aspect=fixed;strokeWidth=2;" vertex="1" parent="1">
          <mxGeometry x="1450" y="350" width="30" height="30" as="geometry" />
        </mxCell>
        <mxCell id="PtanhiVUjZCCaY57AvYd-21" value="11" style="ellipse;whiteSpace=wrap;html=1;aspect=fixed;strokeWidth=2;fillColor=#FFFF00;" vertex="1" parent="1">
          <mxGeometry x="1500" y="250" width="30" height="30" as="geometry" />
        </mxCell>
        <mxCell id="PtanhiVUjZCCaY57AvYd-22" value="30" style="ellipse;whiteSpace=wrap;html=1;aspect=fixed;strokeWidth=2;fillColor=#FFFF00;" vertex="1" parent="1">
          <mxGeometry x="1550" y="350" width="30" height="30" as="geometry" />
        </mxCell>
        <mxCell id="PtanhiVUjZCCaY57AvYd-23" value="12" style="ellipse;whiteSpace=wrap;html=1;aspect=fixed;strokeWidth=2;" vertex="1" parent="1">
          <mxGeometry x="1600" y="250" width="30" height="30" as="geometry" />
        </mxCell>
        <mxCell id="PtanhiVUjZCCaY57AvYd-24" value="13" style="ellipse;whiteSpace=wrap;html=1;aspect=fixed;strokeWidth=2;" vertex="1" parent="1">
          <mxGeometry x="1700" y="250" width="30" height="30" as="geometry" />
        </mxCell>
        <mxCell id="PtanhiVUjZCCaY57AvYd-25" value="31" style="ellipse;whiteSpace=wrap;html=1;aspect=fixed;strokeWidth=2;" vertex="1" parent="1">
          <mxGeometry x="1650" y="350" width="30" height="30" as="geometry" />
        </mxCell>
        <mxCell id="PtanhiVUjZCCaY57AvYd-26" value="32" style="ellipse;whiteSpace=wrap;html=1;aspect=fixed;strokeWidth=2;fillColor=#FFFFFF;" vertex="1" parent="1">
          <mxGeometry x="1750" y="350" width="30" height="30" as="geometry" />
        </mxCell>
        <mxCell id="PtanhiVUjZCCaY57AvYd-27" value="8" style="ellipse;whiteSpace=wrap;html=1;aspect=fixed;strokeWidth=2;" vertex="1" parent="1">
          <mxGeometry x="1200" y="250" width="30" height="30" as="geometry" />
        </mxCell>
        <mxCell id="PtanhiVUjZCCaY57AvYd-28" value="15" style="ellipse;whiteSpace=wrap;html=1;aspect=fixed;strokeWidth=2;" vertex="1" parent="1">
          <mxGeometry x="1900" y="250" width="30" height="30" as="geometry" />
        </mxCell>
        <mxCell id="PtanhiVUjZCCaY57AvYd-29" value="16" style="ellipse;whiteSpace=wrap;html=1;aspect=fixed;strokeWidth=2;fillColor=#FFFF00;" vertex="1" parent="1">
          <mxGeometry x="2000" y="250" width="30" height="30" as="geometry" />
        </mxCell>
        <mxCell id="PtanhiVUjZCCaY57AvYd-30" value="34" style="ellipse;whiteSpace=wrap;html=1;aspect=fixed;strokeWidth=2;" vertex="1" parent="1">
          <mxGeometry x="1950" y="350" width="30" height="30" as="geometry" />
        </mxCell>
        <mxCell id="PtanhiVUjZCCaY57AvYd-31" value="35" style="ellipse;whiteSpace=wrap;html=1;aspect=fixed;strokeWidth=2;" vertex="1" parent="1">
          <mxGeometry x="2050" y="350" width="30" height="30" as="geometry" />
        </mxCell>
        <mxCell id="PtanhiVUjZCCaY57AvYd-32" value="17" style="ellipse;whiteSpace=wrap;html=1;aspect=fixed;strokeWidth=2;" vertex="1" parent="1">
          <mxGeometry x="2100" y="250" width="30" height="30" as="geometry" />
        </mxCell>
        <mxCell id="PtanhiVUjZCCaY57AvYd-33" value="36" style="ellipse;whiteSpace=wrap;html=1;aspect=fixed;strokeWidth=2;" vertex="1" parent="1">
          <mxGeometry x="2150" y="350" width="30" height="30" as="geometry" />
        </mxCell>
        <mxCell id="PtanhiVUjZCCaY57AvYd-34" value="18" style="ellipse;whiteSpace=wrap;html=1;aspect=fixed;strokeWidth=2;" vertex="1" parent="1">
          <mxGeometry x="2200" y="250" width="30" height="30" as="geometry" />
        </mxCell>
        <mxCell id="PtanhiVUjZCCaY57AvYd-35" value="19" style="ellipse;whiteSpace=wrap;html=1;aspect=fixed;strokeWidth=2;fillColor=#FFFF00;" vertex="1" parent="1">
          <mxGeometry x="2300" y="250" width="30" height="30" as="geometry" />
        </mxCell>
        <mxCell id="PtanhiVUjZCCaY57AvYd-36" value="37" style="ellipse;whiteSpace=wrap;html=1;aspect=fixed;strokeWidth=2;fillColor=#FFFF00;" vertex="1" parent="1">
          <mxGeometry x="2250" y="350" width="30" height="30" as="geometry" />
        </mxCell>
        <mxCell id="PtanhiVUjZCCaY57AvYd-50" value="14" style="ellipse;whiteSpace=wrap;html=1;aspect=fixed;strokeWidth=2;" vertex="1" parent="1">
          <mxGeometry x="1800" y="250" width="30" height="30" as="geometry" />
        </mxCell>
        <mxCell id="PtanhiVUjZCCaY57AvYd-51" value="33" style="ellipse;whiteSpace=wrap;html=1;aspect=fixed;strokeWidth=2;" vertex="1" parent="1">
          <mxGeometry x="1850" y="350" width="30" height="30" as="geometry" />
        </mxCell>
        <mxCell id="PtanhiVUjZCCaY57AvYd-52" value="&lt;b&gt;&lt;font style=&quot;font-size: 25px;&quot;&gt;37 DSUB Male&lt;/font&gt;&lt;/b&gt;" style="text;html=1;align=center;verticalAlign=middle;whiteSpace=wrap;rounded=0;" vertex="1" parent="1">
          <mxGeometry x="380" y="150" width="320" height="30" as="geometry" />
        </mxCell>
        <mxCell id="PtanhiVUjZCCaY57AvYd-53" value="&lt;span&gt;&lt;font style=&quot;font-size: 25px;&quot;&gt;GND&lt;/font&gt;&lt;/span&gt;" style="text;html=1;align=center;verticalAlign=middle;whiteSpace=wrap;rounded=0;fontStyle=0" vertex="1" parent="1">
          <mxGeometry x="475" y="210" width="80" height="30" as="geometry" />
        </mxCell>
        <mxCell id="PtanhiVUjZCCaY57AvYd-54" value="&lt;span&gt;&lt;font style=&quot;font-size: 25px;&quot;&gt;GND&lt;/font&gt;&lt;/span&gt;" style="text;html=1;align=center;verticalAlign=middle;whiteSpace=wrap;rounded=0;fontStyle=0" vertex="1" parent="1">
          <mxGeometry x="525" y="310" width="80" height="30" as="geometry" />
        </mxCell>
        <mxCell id="PtanhiVUjZCCaY57AvYd-55" value="&lt;span&gt;&lt;font style=&quot;font-size: 25px;&quot;&gt;GND&lt;/font&gt;&lt;/span&gt;" style="text;html=1;align=center;verticalAlign=middle;whiteSpace=wrap;rounded=0;fontStyle=0" vertex="1" parent="1">
          <mxGeometry x="2275" y="210" width="80" height="30" as="geometry" />
        </mxCell>
        <mxCell id="PtanhiVUjZCCaY57AvYd-56" value="&lt;span&gt;&lt;font style=&quot;font-size: 25px;&quot;&gt;GND&lt;/font&gt;&lt;/span&gt;" style="text;html=1;align=center;verticalAlign=middle;whiteSpace=wrap;rounded=0;fontStyle=0" vertex="1" parent="1">
          <mxGeometry x="2225" y="310" width="80" height="30" as="geometry" />
        </mxCell>
        <mxCell id="PtanhiVUjZCCaY57AvYd-57" value="&lt;span&gt;&lt;font style=&quot;font-size: 25px;&quot;&gt;A0+&lt;/font&gt;&lt;/span&gt;" style="text;html=1;align=center;verticalAlign=middle;whiteSpace=wrap;rounded=0;fontStyle=0" vertex="1" parent="1">
          <mxGeometry x="575" y="210" width="80" height="30" as="geometry" />
        </mxCell>
        <mxCell id="PtanhiVUjZCCaY57AvYd-58" value="&lt;span&gt;&lt;font style=&quot;font-size: 25px;&quot;&gt;A0-&lt;/font&gt;&lt;/span&gt;" style="text;html=1;align=center;verticalAlign=middle;whiteSpace=wrap;rounded=0;fontStyle=0" vertex="1" parent="1">
          <mxGeometry x="675" y="210" width="80" height="30" as="geometry" />
        </mxCell>
        <mxCell id="PtanhiVUjZCCaY57AvYd-59" value="&lt;span style=&quot;font-size: 25px;&quot;&gt;A7-&lt;/span&gt;" style="text;html=1;align=center;verticalAlign=middle;whiteSpace=wrap;rounded=0;fontStyle=0" vertex="1" parent="1">
          <mxGeometry x="725" y="310" width="80" height="30" as="geometry" />
        </mxCell>
        <mxCell id="PtanhiVUjZCCaY57AvYd-60" value="&lt;span&gt;&lt;font style=&quot;font-size: 25px;&quot;&gt;A7+&lt;/font&gt;&lt;/span&gt;" style="text;html=1;align=center;verticalAlign=middle;whiteSpace=wrap;rounded=0;fontStyle=0" vertex="1" parent="1">
          <mxGeometry x="625" y="310" width="80" height="30" as="geometry" />
        </mxCell>
        <mxCell id="PtanhiVUjZCCaY57AvYd-61" value="&lt;span style=&quot;font-size: 25px;&quot;&gt;A1+&lt;/span&gt;" style="text;html=1;align=center;verticalAlign=middle;whiteSpace=wrap;rounded=0;fontStyle=0" vertex="1" parent="1">
          <mxGeometry x="775" y="210" width="80" height="30" as="geometry" />
        </mxCell>
        <mxCell id="PtanhiVUjZCCaY57AvYd-62" value="&lt;span&gt;&lt;font style=&quot;font-size: 25px;&quot;&gt;A8+&lt;/font&gt;&lt;/span&gt;" style="text;html=1;align=center;verticalAlign=middle;whiteSpace=wrap;rounded=0;fontStyle=0" vertex="1" parent="1">
          <mxGeometry x="825" y="310" width="80" height="30" as="geometry" />
        </mxCell>
        <mxCell id="PtanhiVUjZCCaY57AvYd-63" value="&lt;span&gt;&lt;font style=&quot;font-size: 25px;&quot;&gt;A1-&lt;/font&gt;&lt;/span&gt;" style="text;html=1;align=center;verticalAlign=middle;whiteSpace=wrap;rounded=0;fontStyle=0" vertex="1" parent="1">
          <mxGeometry x="875" y="210" width="80" height="30" as="geometry" />
        </mxCell>
        <mxCell id="PtanhiVUjZCCaY57AvYd-64" value="&lt;span style=&quot;font-size: 25px;&quot;&gt;12V0&lt;/span&gt;" style="text;html=1;align=center;verticalAlign=middle;whiteSpace=wrap;rounded=0;fontStyle=0" vertex="1" parent="1">
          <mxGeometry x="975" y="210" width="80" height="30" as="geometry" />
        </mxCell>
        <mxCell id="PtanhiVUjZCCaY57AvYd-65" value="&lt;span style=&quot;font-size: 25px;&quot;&gt;A2+&lt;/span&gt;" style="text;html=1;align=center;verticalAlign=middle;whiteSpace=wrap;rounded=0;fontStyle=0" vertex="1" parent="1">
          <mxGeometry x="1075" y="210" width="80" height="30" as="geometry" />
        </mxCell>
        <mxCell id="PtanhiVUjZCCaY57AvYd-66" value="&lt;span style=&quot;font-size: 25px;&quot;&gt;A2-&lt;/span&gt;" style="text;html=1;align=center;verticalAlign=middle;whiteSpace=wrap;rounded=0;fontStyle=0" vertex="1" parent="1">
          <mxGeometry x="1175" y="210" width="80" height="30" as="geometry" />
        </mxCell>
        <mxCell id="PtanhiVUjZCCaY57AvYd-67" value="&lt;span style=&quot;font-size: 25px;&quot;&gt;A3+&lt;/span&gt;" style="text;html=1;align=center;verticalAlign=middle;whiteSpace=wrap;rounded=0;fontStyle=0" vertex="1" parent="1">
          <mxGeometry x="1275" y="210" width="80" height="30" as="geometry" />
        </mxCell>
        <mxCell id="PtanhiVUjZCCaY57AvYd-68" value="&lt;span style=&quot;font-size: 25px;&quot;&gt;A3-&lt;/span&gt;" style="text;html=1;align=center;verticalAlign=middle;whiteSpace=wrap;rounded=0;fontStyle=0" vertex="1" parent="1">
          <mxGeometry x="1375" y="210" width="80" height="30" as="geometry" />
        </mxCell>
        <mxCell id="PtanhiVUjZCCaY57AvYd-69" value="&lt;span style=&quot;font-size: 25px;&quot;&gt;GND&lt;/span&gt;" style="text;html=1;align=center;verticalAlign=middle;whiteSpace=wrap;rounded=0;fontStyle=0" vertex="1" parent="1">
          <mxGeometry x="1475" y="210" width="80" height="30" as="geometry" />
        </mxCell>
        <mxCell id="PtanhiVUjZCCaY57AvYd-70" value="&lt;span style=&quot;font-size: 25px;&quot;&gt;A4+&lt;/span&gt;" style="text;html=1;align=center;verticalAlign=middle;whiteSpace=wrap;rounded=0;fontStyle=0" vertex="1" parent="1">
          <mxGeometry x="1575" y="210" width="80" height="30" as="geometry" />
        </mxCell>
        <mxCell id="PtanhiVUjZCCaY57AvYd-71" value="&lt;span style=&quot;font-size: 25px;&quot;&gt;A4-&lt;/span&gt;" style="text;html=1;align=center;verticalAlign=middle;whiteSpace=wrap;rounded=0;fontStyle=0" vertex="1" parent="1">
          <mxGeometry x="1675" y="210" width="80" height="30" as="geometry" />
        </mxCell>
        <mxCell id="PtanhiVUjZCCaY57AvYd-72" value="&lt;span style=&quot;font-size: 25px;&quot;&gt;A5+&lt;/span&gt;" style="text;html=1;align=center;verticalAlign=middle;whiteSpace=wrap;rounded=0;fontStyle=0" vertex="1" parent="1">
          <mxGeometry x="1775" y="210" width="80" height="30" as="geometry" />
        </mxCell>
        <mxCell id="PtanhiVUjZCCaY57AvYd-73" value="&lt;span style=&quot;font-size: 25px;&quot;&gt;A5-&lt;/span&gt;" style="text;html=1;align=center;verticalAlign=middle;whiteSpace=wrap;rounded=0;fontStyle=0" vertex="1" parent="1">
          <mxGeometry x="1875" y="210" width="80" height="30" as="geometry" />
        </mxCell>
        <mxCell id="PtanhiVUjZCCaY57AvYd-74" value="&lt;span style=&quot;font-size: 25px;&quot;&gt;GND&lt;/span&gt;" style="text;html=1;align=center;verticalAlign=middle;whiteSpace=wrap;rounded=0;fontStyle=0" vertex="1" parent="1">
          <mxGeometry x="1975" y="210" width="80" height="30" as="geometry" />
        </mxCell>
        <mxCell id="PtanhiVUjZCCaY57AvYd-75" value="&lt;span style=&quot;font-size: 25px;&quot;&gt;A6-&lt;/span&gt;" style="text;html=1;align=center;verticalAlign=middle;whiteSpace=wrap;rounded=0;fontStyle=0" vertex="1" parent="1">
          <mxGeometry x="2175" y="210" width="80" height="30" as="geometry" />
        </mxCell>
        <mxCell id="PtanhiVUjZCCaY57AvYd-76" value="&lt;span style=&quot;font-size: 25px;&quot;&gt;A6+&lt;/span&gt;" style="text;html=1;align=center;verticalAlign=middle;whiteSpace=wrap;rounded=0;fontStyle=0" vertex="1" parent="1">
          <mxGeometry x="2075" y="210" width="80" height="30" as="geometry" />
        </mxCell>
        <mxCell id="PtanhiVUjZCCaY57AvYd-77" value="&lt;span&gt;&lt;font style=&quot;font-size: 25px;&quot;&gt;A8-&lt;/font&gt;&lt;/span&gt;" style="text;html=1;align=center;verticalAlign=middle;whiteSpace=wrap;rounded=0;fontStyle=0" vertex="1" parent="1">
          <mxGeometry x="925" y="310" width="80" height="30" as="geometry" />
        </mxCell>
        <mxCell id="PtanhiVUjZCCaY57AvYd-78" value="&lt;span&gt;&lt;font style=&quot;font-size: 25px;&quot;&gt;A9+&lt;/font&gt;&lt;/span&gt;" style="text;html=1;align=center;verticalAlign=middle;whiteSpace=wrap;rounded=0;fontStyle=0" vertex="1" parent="1">
          <mxGeometry x="1130" y="310" width="80" height="30" as="geometry" />
        </mxCell>
        <mxCell id="PtanhiVUjZCCaY57AvYd-79" value="&lt;span style=&quot;font-size: 25px;&quot;&gt;12V0&lt;/span&gt;" style="text;html=1;align=center;verticalAlign=middle;whiteSpace=wrap;rounded=0;fontStyle=0" vertex="1" parent="1">
          <mxGeometry x="1030" y="310" width="80" height="30" as="geometry" />
        </mxCell>
        <mxCell id="PtanhiVUjZCCaY57AvYd-80" value="&lt;span&gt;&lt;font style=&quot;font-size: 25px;&quot;&gt;A9-&lt;/font&gt;&lt;/span&gt;" style="text;html=1;align=center;verticalAlign=middle;whiteSpace=wrap;rounded=0;fontStyle=0" vertex="1" parent="1">
          <mxGeometry x="1230" y="310" width="80" height="30" as="geometry" />
        </mxCell>
        <mxCell id="PtanhiVUjZCCaY57AvYd-81" value="&lt;span style=&quot;font-size: 25px;&quot;&gt;A10+&lt;/span&gt;" style="text;html=1;align=center;verticalAlign=middle;whiteSpace=wrap;rounded=0;fontStyle=0" vertex="1" parent="1">
          <mxGeometry x="1325" y="310" width="80" height="30" as="geometry" />
        </mxCell>
        <mxCell id="PtanhiVUjZCCaY57AvYd-82" value="&lt;span style=&quot;font-size: 25px;&quot;&gt;GND&lt;/span&gt;" style="text;html=1;align=center;verticalAlign=middle;whiteSpace=wrap;rounded=0;fontStyle=0" vertex="1" parent="1">
          <mxGeometry x="1525" y="310" width="80" height="30" as="geometry" />
        </mxCell>
        <mxCell id="PtanhiVUjZCCaY57AvYd-83" value="&lt;span style=&quot;font-size: 25px;&quot;&gt;A10-&lt;/span&gt;" style="text;html=1;align=center;verticalAlign=middle;whiteSpace=wrap;rounded=0;fontStyle=0" vertex="1" parent="1">
          <mxGeometry x="1425" y="310" width="80" height="30" as="geometry" />
        </mxCell>
        <mxCell id="PtanhiVUjZCCaY57AvYd-84" value="&lt;span style=&quot;font-size: 25px;&quot;&gt;A11+&lt;/span&gt;" style="text;html=1;align=center;verticalAlign=middle;whiteSpace=wrap;rounded=0;fontStyle=0" vertex="1" parent="1">
          <mxGeometry x="1625" y="310" width="80" height="30" as="geometry" />
        </mxCell>
        <mxCell id="PtanhiVUjZCCaY57AvYd-85" value="&lt;span&gt;&lt;font style=&quot;font-size: 25px;&quot;&gt;A11-&lt;/font&gt;&lt;/span&gt;" style="text;html=1;align=center;verticalAlign=middle;whiteSpace=wrap;rounded=0;fontStyle=0" vertex="1" parent="1">
          <mxGeometry x="1725" y="310" width="80" height="30" as="geometry" />
        </mxCell>
        <mxCell id="PtanhiVUjZCCaY57AvYd-86" value="&lt;span style=&quot;font-size: 25px;&quot;&gt;A12-&lt;/span&gt;" style="text;html=1;align=center;verticalAlign=middle;whiteSpace=wrap;rounded=0;fontStyle=0" vertex="1" parent="1">
          <mxGeometry x="1925" y="310" width="80" height="30" as="geometry" />
        </mxCell>
        <mxCell id="PtanhiVUjZCCaY57AvYd-87" value="&lt;span style=&quot;font-size: 25px;&quot;&gt;A12+&lt;/span&gt;" style="text;html=1;align=center;verticalAlign=middle;whiteSpace=wrap;rounded=0;fontStyle=0" vertex="1" parent="1">
          <mxGeometry x="1825" y="310" width="80" height="30" as="geometry" />
        </mxCell>
        <mxCell id="PtanhiVUjZCCaY57AvYd-88" value="&lt;span style=&quot;font-size: 25px;&quot;&gt;A13+&lt;/span&gt;" style="text;html=1;align=center;verticalAlign=middle;whiteSpace=wrap;rounded=0;fontStyle=0" vertex="1" parent="1">
          <mxGeometry x="2025" y="310" width="80" height="30" as="geometry" />
        </mxCell>
        <mxCell id="PtanhiVUjZCCaY57AvYd-89" value="&lt;span style=&quot;font-size: 25px;&quot;&gt;A13-&lt;/span&gt;" style="text;html=1;align=center;verticalAlign=middle;whiteSpace=wrap;rounded=0;fontStyle=0" vertex="1" parent="1">
          <mxGeometry x="2125" y="310" width="80" height="30" as="geometry" />
        </mxCell>
        <mxCell id="PtanhiVUjZCCaY57AvYd-90" value="" style="endArrow=none;html=1;rounded=0;strokeWidth=2;" edge="1" parent="1">
          <mxGeometry width="50" height="50" relative="1" as="geometry">
            <mxPoint x="540" y="400" as="sourcePoint" />
            <mxPoint x="2300" y="400" as="targetPoint" />
          </mxGeometry>
        </mxCell>
        <mxCell id="PtanhiVUjZCCaY57AvYd-91" value="" style="endArrow=none;html=1;rounded=0;strokeWidth=2;" edge="1" parent="1">
          <mxGeometry width="50" height="50" relative="1" as="geometry">
            <mxPoint x="440" y="200" as="sourcePoint" />
            <mxPoint x="2400" y="200" as="targetPoint" />
          </mxGeometry>
        </mxCell>
        <mxCell id="PtanhiVUjZCCaY57AvYd-93" value="" style="endArrow=none;html=1;rounded=0;strokeWidth=2;" edge="1" parent="1">
          <mxGeometry width="50" height="50" relative="1" as="geometry">
            <mxPoint x="440" y="200" as="sourcePoint" />
            <mxPoint x="540" y="400" as="targetPoint" />
          </mxGeometry>
        </mxCell>
        <mxCell id="PtanhiVUjZCCaY57AvYd-94" value="" style="endArrow=none;html=1;rounded=0;strokeWidth=2;" edge="1" parent="1">
          <mxGeometry width="50" height="50" relative="1" as="geometry">
            <mxPoint x="2400" y="200" as="sourcePoint" />
            <mxPoint x="2300" y="400" as="targetPoint" />
          </mxGeometry>
        </mxCell>
      </root>
    </mxGraphModel>
  </diagram>
</mxfile>
